<svg id="Layer_1" data-name="Layer 1" xmlns="http://www.w3.org/2000/svg" viewBox="0 0 512 512"><title>telephone</title><path d="M0,256C0,114.61,114.61,0,256,0S512,114.63,512,256,397.38,512,256,512,0,397.39,0,256Z" fill="#eccb58"/><path d="M170,114c5.26,1.33,8.49,5,11.33,9.38,11.22,17.39,22.67,34.64,33.94,52,4.3,6.6,3.91,12.77-1.61,18.38-3.36,3.39-7.34,6.15-11.12,9.1-3.06,2.37-6.38,4.43-9.41,6.87-8.17,6.67-10.68,15.18-7.81,25.31,2.66,9.44,7.76,17.72,12.89,25.94,17,27.16,40.12,47.61,68.62,62a67.56,67.56,0,0,0,11.64,4.31c8.35,2.33,15.37-.17,20.76-6.84,3.05-3.81,5.65-8,8.51-12A98.7,98.7,0,0,1,314,300c6.58-7.42,14.72-8.38,23.09-2.91q23.2,15.16,46.33,30.37c1.77,1.17,3.49,2.46,5.34,3.5,4.5,2.54,7.91,5.93,9.27,11.09v7.2a3,3,0,0,0-.36.72C395,363.13,389,374.72,381,385.29c-3.2,4.21-6.82,8.39-12.37,9.24-9.76,1.44-19.58,3.21-29.39,3.43-34.27.73-65.85-9.28-95.48-25.65-39.86-22-71.79-52.69-96.38-91-15.85-24.67-27-51.26-31.51-80.37-.8-5.1-1.32-10.27-2-15.38,0-6.09,0-12.18,0-18.31.14-.8.36-1.58.49-2.38.78-5.76,1.53-11.51,2.33-17.27.73-5.53,2.77-10.43,7.19-13.92a130,130,0,0,1,13.19-9.58A85.55,85.55,0,0,1,163.33,114Z" fill="#fff" fill-rule="evenodd"/></svg>