<svg id="Layer_1" data-name="Layer 1" xmlns="http://www.w3.org/2000/svg" viewBox="0 0 512 512"><defs><style>.cls-1{fill:#141f38;}</style></defs><title>phone-chat-bubble-outline</title><path class="cls-1" d="M407,78.77H308.51V72.21A72.29,72.29,0,0,0,236.31,0H105A72.29,72.29,0,0,0,32.82,72.21v328.2h0v39.38A72.29,72.29,0,0,0,105,512H236.31a72.29,72.29,0,0,0,72.21-72.21V393.85h0V302H407a72.29,72.29,0,0,0,72.21-72.21V151A72.29,72.29,0,0,0,407,78.77ZM46,72.21A59.14,59.14,0,0,1,105,13.13H236.31a59.14,59.14,0,0,1,59.07,59.08v6.56H249.44A72.11,72.11,0,0,0,193.77,105H46ZM295.38,439.79a59.15,59.15,0,0,1-59.08,59.08H105a59.15,59.15,0,0,1-59.08-59.08V407H295.38Zm0-45.95H46V118.15H185.13a71.75,71.75,0,0,0-7.9,32.82v78.77a72.43,72.43,0,0,0,52.51,69.48V347.9A6.57,6.57,0,0,0,241,352.54L291.54,302h3.84ZM466,229.74A59.14,59.14,0,0,1,407,288.82H288.82a6.56,6.56,0,0,0-4.64,1.92L242.87,332v-38a6.58,6.58,0,0,0-5.25-6.44,59.22,59.22,0,0,1-47.26-57.89V151a58.71,58.71,0,0,1,10-32.82,59.44,59.44,0,0,1,12-13.12,58.8,58.8,0,0,1,37.1-13.13H407A59.14,59.14,0,0,1,466,151Z"/><path class="cls-1" d="M393.85,157.54H262.56a6.56,6.56,0,0,0,0,13.13H393.85a6.56,6.56,0,1,0,0-13.13Z"/><path class="cls-1" d="M328.21,210.05H262.56a6.56,6.56,0,0,0,0,13.13h65.64a6.56,6.56,0,0,0,0-13.13Z"/><circle class="cls-1" cx="170.67" cy="452.92" r="13.13"/><path class="cls-1" d="M183.79,52.51H157.54a6.56,6.56,0,0,0,0,13.13h26.26a6.56,6.56,0,1,0,0-13.13Z"/></svg>