<?xml version="1.0" standalone="no"?>
<!DOCTYPE svg PUBLIC "-//W3C//DTD SVG 20010904//EN"
 "http://www.w3.org/TR/2001/REC-SVG-20010904/DTD/svg10.dtd">
<svg version="1.0" xmlns="http://www.w3.org/2000/svg"
 width="313.000000pt" height="487.000000pt" viewBox="0 0 313.000000 487.000000"
 preserveAspectRatio="xMidYMid meet">
<metadata>
Created by potrace 1.15, written by Peter Selinger 2001-2017
</metadata>
<g transform="translate(0.000000,487.000000) scale(0.100000,-0.100000)"
fill="#86316A" stroke="none">
<path d="M482 4735 c-29 -8 -62 -20 -74 -26 -42 -23 -110 -95 -136 -144 l-27
-50 0 -2055 0 -2055 27 -50 c48 -91 132 -154 232 -175 35 -7 377 -10 1056 -8
l1005 3 62 29 c69 31 128 88 165 158 l23 43 0 2055 0 2055 -27 51 c-33 64
-113 136 -176 161 -44 17 -103 18 -1062 20 -856 2 -1023 0 -1068 -12z m1498
-275 l0 -50 -450 0 -450 0 0 50 0 50 450 0 450 0 0 -50z m600 -1845 l0 -1575
-1050 0 -1050 0 0 1575 0 1575 1050 0 1050 0 0 -1575z m-600 -1975 l0 -70
-450 0 -450 0 0 70 0 70 450 0 450 0 0 -70z"/>
<path d="M1415 3023 c-210 -44 -386 -213 -440 -420 -19 -74 -19 -213 0 -287
51 -196 215 -360 411 -411 75 -19 213 -19 288 0 195 51 360 216 411 411 19 75
19 213 0 288 -51 196 -215 360 -411 411 -54 14 -209 19 -259 8z m430 -334 c73
-67 74 -65 -157 -296 -124 -124 -210 -203 -222 -203 -11 0 -76 56 -158 137
-104 104 -138 143 -138 162 0 31 75 111 104 111 12 0 55 -35 106 -85 l85 -85
150 150 c82 83 158 150 168 150 9 0 38 -19 62 -41z"/>
</g>
</svg>
